<?xml version="1.0" standalone="no"?>
<!DOCTYPE svg PUBLIC "-//W3C//DTD SVG 20010904//EN"
 "http://www.w3.org/TR/2001/REC-SVG-20010904/DTD/svg10.dtd">
<svg version="1.0" xmlns="http://www.w3.org/2000/svg"
 width="398.000000pt" height="398.000000pt" viewBox="0 0 398.000000 398.000000"
 preserveAspectRatio="xMidYMid meet">

<g transform="translate(0.000000,398.000000) scale(0.100000,-0.100000)"
fill="#000000" stroke="none">
<path d="M1862 3200 c-36 -9 -69 -34 -77 -60 -4 -13 -29 -21 -103 -33 -289
-47 -480 -162 -567 -340 -62 -127 -70 -174 -69 -427 0 -142 5 -245 12 -280 18
-79 43 -222 40 -224 -2 -1 -20 -9 -41 -19 -74 -34 -100 -162 -63 -319 20 -88
45 -138 108 -223 44 -58 61 -72 98 -84 25 -8 46 -15 48 -17 2 -1 12 -41 22
-88 24 -108 58 -177 126 -255 30 -34 54 -65 54 -68 0 -2 -16 -23 -35 -45 -19
-23 -32 -44 -30 -49 3 -4 0 -11 -6 -14 -6 -4 -14 -16 -18 -28 -6 -16 -38 -29
-152 -63 -79 -24 -152 -44 -162 -44 -10 0 -34 -7 -55 -16 l-37 -15 22 -18 c26
-21 47 -18 236 39 60 18 111 29 114 26 4 -3 7 -18 8 -33 13 -181 19 -223 29
-220 6 2 10 18 8 34 -2 17 -7 64 -11 104 -10 88 -7 179 5 188 5 3 18 23 29 44
25 47 59 87 74 87 6 0 33 -20 59 -44 26 -25 58 -53 71 -63 l23 -19 -56 0 c-31
0 -56 2 -57 5 -5 42 -14 59 -25 48 -8 -7 15 -71 57 -162 15 -33 31 -72 34 -87
4 -16 11 -28 15 -28 4 0 11 -12 14 -26 4 -14 12 -24 18 -22 6 2 23 -17 37 -43
46 -84 72 -106 137 -115 62 -7 387 1 419 11 11 3 28 18 37 33 38 60 43 67 49
72 9 7 44 88 59 135 7 22 16 45 20 50 14 20 70 164 70 181 0 16 -1 16 -15 -2
-8 -10 -15 -26 -15 -34 0 -12 -15 -15 -63 -17 l-62 -1 29 21 c16 12 54 43 83
70 29 26 57 47 61 47 9 0 58 -59 83 -99 40 -65 52 -173 34 -314 -5 -48 -5 -51
10 -33 14 19 19 67 18 189 0 40 3 48 16 44 9 -2 72 -21 139 -41 136 -40 158
-42 185 -21 18 13 18 14 -1 24 -11 6 -41 15 -68 21 -79 17 -294 84 -294 92 0
18 -68 119 -87 129 -13 7 -23 17 -23 22 0 5 22 33 49 63 69 78 102 145 127
253 l21 95 49 15 c41 14 56 26 97 81 93 124 127 221 127 365 0 124 -44 195
-121 195 -16 0 -19 4 -14 18 4 9 16 64 27 122 12 58 27 117 35 132 22 44 26
111 14 298 -11 185 -31 280 -75 369 -101 198 -319 317 -646 351 -86 9 -119 16
-130 29 -40 46 -114 67 -178 51z m72 -137 c14 -46 26 -157 26 -239 l0 -91 -31
-7 c-17 -3 -44 -6 -60 -6 -54 0 -142 -41 -190 -89 -59 -58 -76 -113 -85 -270
l-7 -116 -139 -28 c-76 -15 -158 -34 -181 -43 -78 -29 -86 -29 -97 1 -15 38
-12 170 6 325 39 339 71 403 241 481 108 50 319 95 455 98 46 1 58 -2 62 -16z
m281 2 c201 -29 314 -72 387 -148 97 -101 156 -313 164 -591 5 -154 -2 -190
-32 -165 -8 6 -14 9 -14 6 0 -4 -19 1 -42 9 -57 21 -182 51 -246 60 -29 3 -52
10 -52 14 0 5 -8 6 -19 3 -17 -4 -19 4 -23 119 -4 94 -10 136 -27 180 -38 99
-128 157 -268 173 l-63 7 0 71 c-1 69 -13 190 -26 250 l-6 27 84 0 c46 0 128
-7 183 -15z m506 -241 c82 -106 114 -230 124 -474 7 -172 0 -203 -46 -208
l-26 -3 9 53 c16 99 -13 385 -54 517 -24 79 -62 157 -91 190 l-22 24 33 -24
c18 -13 51 -47 73 -75z m-1512 -37 c-42 -124 -80 -546 -57 -628 6 -20 4 -28
-7 -33 -50 -19 -59 30 -52 272 5 182 19 257 62 343 17 32 63 99 69 99 2 0 -5
-24 -15 -53z m496 -353 c-75 -13 -80 -12 -73 8 4 9 24 12 74 9 l69 -4 -70 -13z
m595 10 c0 -13 -7 -15 -31 -10 -17 3 -43 6 -58 6 -20 0 -23 2 -11 10 8 5 34
10 58 10 32 0 42 -4 42 -16z m2 -218 c5 -9 18 -16 29 -16 25 0 209 -37 260
-52 36 -10 37 -12 44 -71 3 -34 15 -86 26 -117 27 -80 39 -182 38 -333 -1
-111 -6 -156 -34 -282 -19 -82 -41 -190 -51 -240 -9 -49 -30 -116 -46 -148
-56 -112 -286 -321 -442 -401 -55 -29 -67 -31 -165 -31 -123 0 -140 6 -286
113 -235 170 -335 296 -360 452 -4 25 -24 124 -45 220 -35 160 -38 193 -44
385 -7 195 -6 214 13 268 11 33 23 81 27 108 l7 49 61 19 c33 10 108 26 166
36 58 9 113 21 122 26 10 5 59 13 110 19 51 5 109 12 128 14 19 2 125 3 234 1
169 -3 201 -6 208 -19z m-1175 -481 c13 -40 11 -41 -23 -19 -37 25 -39 11 -3
-25 21 -22 29 -37 24 -49 -4 -9 -11 -39 -17 -67 -9 -41 -8 -56 6 -85 l16 -35
-5 37 c-6 40 10 118 24 118 10 0 26 -61 40 -160 6 -41 14 -85 17 -97 7 -25 -7
-30 -28 -10 -7 6 -22 19 -33 27 -17 13 -16 11 4 -17 14 -22 31 -33 46 -33 20
0 25 -7 32 -42 10 -47 0 -58 -35 -39 -29 16 -120 157 -137 214 -19 61 -30 190
-21 239 7 40 39 78 65 78 11 0 21 -12 28 -35z m1743 10 c46 -49 36 -233 -19
-345 -38 -77 -102 -160 -129 -167 -31 -7 -33 -4 -20 45 7 29 15 41 24 38 14
-5 74 50 74 68 0 6 -14 -4 -31 -21 -52 -56 -57 -47 -34 57 8 36 14 86 15 111
0 44 21 91 35 77 12 -12 23 -80 19 -117 l-4 -36 16 35 c16 35 14 70 -11 146
-5 15 2 29 23 52 40 42 23 51 -22 12 l-35 -31 10 38 c6 21 12 44 14 51 7 21
50 13 75 -13z m-1101 -1227 c74 -38 93 -43 164 -47 102 -4 169 11 242 54 63
38 72 40 127 25 35 -10 37 -12 27 -38 -42 -112 -248 -181 -454 -153 -116 16
-172 39 -228 92 -70 67 -62 97 28 108 5 0 48 -18 94 -41z"/>
<path d="M1584 3000 c-24 -9 -54 -47 -54 -67 0 -20 37 -25 69 -8 39 20 57 51
40 71 -13 16 -24 17 -55 4z"/>
<path d="M2283 2998 c-16 -20 2 -55 37 -73 59 -31 94 9 48 53 -30 27 -71 37
-85 20z"/>
<path d="M1483 1980 c-46 -23 -84 -63 -110 -113 l-16 -31 24 17 c89 65 181 76
347 42 102 -21 116 -17 104 30 -12 43 -79 66 -207 72 -89 4 -105 2 -142 -17z"/>
<path d="M2205 1989 c-69 -16 -93 -30 -106 -60 -20 -49 -3 -56 94 -36 176 35
249 31 323 -19 20 -14 38 -23 41 -20 10 10 -50 88 -89 113 -37 25 -52 28 -132
30 -50 1 -109 -2 -131 -8z"/>
<path d="M1529 1796 c-51 -18 -98 -49 -137 -89 l-33 -34 51 -47 c65 -60 128
-87 205 -88 67 0 108 15 177 65 l48 34 -31 47 c-69 104 -179 148 -280 112z
m90 -40 c17 -20 2 -48 -23 -44 -24 3 -34 37 -14 49 18 12 24 11 37 -5z m-88
-24 c-17 -32 -13 -58 14 -90 32 -39 74 -48 114 -28 35 19 51 44 51 80 0 34 7
33 55 -8 l40 -34 -20 -22 c-58 -65 -190 -89 -272 -49 -41 20 -93 74 -93 97 0
11 111 84 118 78 2 -3 -1 -13 -7 -24z"/>
<path d="M2257 1796 c-50 -18 -105 -62 -129 -102 -11 -19 -22 -34 -25 -34 -3
0 -2 24 2 53 5 46 4 50 -8 34 -29 -35 -46 -250 -28 -332 l7 -30 7 40 c4 22 7
75 7 118 0 86 5 91 57 51 115 -88 274 -73 381 37 l43 44 -50 47 c-54 50 -139
88 -194 88 -18 -1 -49 -7 -70 -14z m61 -60 c-2 -13 -12 -22 -26 -24 -29 -4
-42 26 -18 44 24 17 48 6 44 -20z m171 -37 c24 -19 24 -22 9 -47 -9 -15 -35
-40 -57 -57 -35 -24 -54 -30 -111 -33 -77 -5 -136 16 -181 64 l-24 26 45 38
45 39 6 -40 c7 -49 34 -78 81 -85 29 -5 41 -1 68 23 34 31 42 65 26 112 l-8
23 38 -21 c22 -12 50 -31 63 -42z"/>
<path d="M1782 1288 c-17 -17 -15 -49 4 -77 14 -19 22 -22 54 -17 32 5 40 2
65 -24 39 -40 81 -40 119 -1 23 24 34 28 61 24 26 -4 36 0 53 22 26 33 26 35
8 60 -13 18 -13 17 -13 -9 0 -38 -17 -51 -61 -48 -30 3 -42 -2 -66 -27 -28
-29 -54 -43 -41 -21 3 5 0 8 -7 5 -7 -3 -26 7 -43 21 -24 21 -37 25 -68 21
-43 -6 -62 15 -51 58 7 28 4 31 -14 13z"/>
<path d="M1626 1005 c-21 -21 -9 -45 23 -45 14 0 60 -7 101 -17 49 -10 121
-16 210 -16 89 0 161 6 210 16 41 10 87 17 102 17 33 0 42 13 28 40 -13 23
-27 25 -49 6 -48 -41 -314 -59 -471 -32 -52 9 -102 23 -110 31 -21 19 -25 19
-44 0z"/>
<path d="M1950 851 c-91 -6 -93 -6 -47 -15 57 -10 144 -3 160 13 8 8 7 11 -3
9 -8 -1 -58 -4 -110 -7z"/>
</g>
</svg>
